<svg xmlns="http://www.w3.org/2000/svg" width="512" height="512" fill="none" viewBox="0 0 512 512"><g clip-path="url(#clip0_2180_28805)"><path fill="#19AB6D" d="M447.026 257.146C447.335 258.151 447.914 259.156 447.915 260.161C447.956 317.638 447.95 375.116 447.939 432.594C447.939 433.418 447.82 434.242 447.72 435.552C446.291 435.67 444.866 435.891 443.441 435.892C384.13 435.909 324.82 435.908 265.51 435.898C264.517 435.898 263.524 435.759 262.558 434.949C262.735 432.251 263.004 430.29 263.018 428.328C263.109 415.293 263.145 402.259 263.653 389.189C284.353 389.123 304.598 389.123 324.843 389.014C326.908 389.003 328.969 388.335 331.047 387.505C331.092 363.079 331.122 339.12 331.609 315.117C357.755 315.04 383.443 315.043 409.13 314.892C411.009 314.881 412.882 313.753 414.82 312.665C414.928 294.463 414.974 276.74 415.485 258.987C424.562 258.944 433.175 259.027 441.781 258.837C443.541 258.798 445.278 257.737 447.026 257.146Z"/><path fill="#19AB6C" d="M258.816 72.1953C259.149 72.4873 259.773 72.7782 259.774 73.0713C259.823 86.1828 259.816 99.2945 259.816 112.848C240.868 112.848 222.28 112.848 202.921 112.848C202.921 115.208 202.921 117.132 202.921 119.056C202.921 140.713 202.807 162.371 203.013 184.027C203.056 188.547 201.881 190.064 197.146 190.025C170.659 189.804 144.17 189.919 117.682 189.919C115.702 189.919 113.722 189.919 111.103 189.919C111.103 206.961 111.103 223.675 111.103 241.291C98.5126 241.723 86.5229 242.135 74.4125 241.872C74.5307 238.737 74.975 236.276 74.978 233.815C75.0435 180.267 75.0599 126.72 75.5458 73.1313C134.666 73.0705 193.326 73.0602 251.985 72.9959C254.262 72.9934 256.539 72.4739 258.816 72.1953Z"/><path fill="#C8D93B" d="M200.839 317.102C200.896 340.426 200.952 363.751 200.94 387.822C202.068 389.055 203.259 389.954 204.458 389.963C217.741 390.064 231.025 390.064 244.308 389.976C245.879 389.966 247.445 389.266 249.014 388.886C249.327 391.241 249.87 393.592 249.909 395.951C250.028 403.082 249.952 410.216 249.952 417.695C248.035 417.782 246.427 417.918 244.819 417.918C186.526 417.929 128.233 417.936 69.9404 417.883C68.3171 417.881 66.6944 417.211 65.3102 416.058C65.6999 413.949 65.9821 412.634 65.9827 411.319C66.0051 360.487 66.0097 309.655 65.9662 258.824C65.9648 257.208 65.4343 255.592 65.1505 253.976C65.0988 253.577 65.047 253.179 65.5282 252.46C78.7911 252.123 91.5213 252.144 104.251 252.048C106.173 252.033 108.09 251.475 110.01 251.168C110.657 252.457 111.86 253.742 111.869 255.035C111.997 274.354 111.967 293.673 112.138 313.825C114.311 315.099 116.318 315.917 118.328 315.923C145.216 316.003 172.104 315.97 198.994 316.437C198.996 339.668 198.996 362.426 198.996 385.185C199.333 385.186 199.67 385.188 200.007 385.189C200.007 383.584 200.007 381.978 200.007 380.372C200.007 361.395 199.981 342.417 200.043 323.44C200.05 321.327 200.562 319.215 200.839 317.102Z"/><path fill="#C8D83C" d="M411.968 186.007C385.786 185.959 359.604 185.929 333.422 185.819C331.636 185.812 329.852 185.197 328.451 184.246C329.222 182.085 329.941 180.542 329.947 178.997C330.023 159.589 330.02 140.18 329.954 120.771C329.948 119.18 329.335 117.59 328.655 115.776C326.337 115.364 324.368 115.019 322.398 115.013C306.259 114.965 290.119 114.981 273.988 114.511C274.017 103.735 274.039 93.4255 274.525 83.0908C333.602 83.0451 392.215 83.0379 450.827 82.9573C453.24 82.954 455.653 82.2631 458.065 81.8926C458.353 83.0919 458.891 84.2909 458.892 85.4904C458.933 139.622 458.929 193.753 458.923 247.884C458.923 248.695 458.844 249.506 458.769 250.952C451.881 250.952 445.117 250.952 438.353 250.952C431.191 250.952 424.028 251.019 416.868 250.899C415.35 250.874 413.843 250.171 412.59 249.2C413.222 247.737 413.919 246.854 413.922 245.97C413.995 226.811 414.016 207.651 413.915 188.493C413.91 187.661 412.646 186.836 411.968 186.007Z"/><path fill="#7D8E64" d="M279.918 245.154C285.905 246.962 289.348 251.659 292.969 257.111C298.448 257.576 303.683 257.362 308.919 257.147C313.602 258.178 313.758 261.605 313.652 265.495C313.419 274.04 311.711 276.409 304.175 279.689C300.928 281.103 298.119 283.541 295.152 285.574C289.596 289.38 284.07 293.231 278.53 297.061C278.256 297.25 277.991 297.493 277.684 297.584C269.765 299.937 261.882 302.44 253.875 304.442C252.598 304.761 249.466 302.909 249.395 301.905C249.075 297.363 246.205 292.592 249.898 288.189C250.407 287.582 250.709 286.419 251.274 286.3C257.385 285.007 255.096 280.301 254.42 277.19C253.21 271.621 253.022 266.284 255.078 260.339C258.792 258.277 262.505 257.295 265.14 255.048C269.535 251.299 272.682 245.879 279.489 246C279.627 246.002 279.775 245.448 279.918 245.154Z"/><path fill="#798C61" d="M273.953 200.162C275.179 201.58 277.356 202.927 277.469 204.429C278.008 211.592 279.732 219.376 277.599 225.798C275.962 230.727 269.489 234.377 264.548 237.664C263.222 238.546 258.783 236.73 257.254 234.909C254.032 231.072 251.236 226.636 249.352 222.005C248.216 219.213 247.286 217.576 244.476 216.058C242.037 214.74 240.77 211.254 239.423 208.265C240.674 205.055 241.487 202.307 242.569 199.282C249.916 198.569 256.993 198.132 264.226 197.941C266.567 199.215 268.692 200.43 270.971 201.171C271.77 201.432 272.948 200.532 273.953 200.162Z"/><path fill="#808E64" d="M216.963 211.108C219.677 210.09 222.39 209.073 225.393 208.463C225.089 211.966 224.498 215.06 227.914 217.062C227.914 217.062 227.972 217.021 228.016 217.279C228.226 217.819 228.46 218.023 228.763 218.15C230.652 221.039 232.836 223.201 235.79 221.428C238.644 225.343 241.229 228.889 243.983 233.16C244.384 236.517 244.556 239.156 244.858 241.781C245.356 246.093 243.947 248.604 239.159 247.988C231.81 247.041 224.466 246.05 217.12 245.078C216.832 238.09 213.006 232.999 208.388 228.205C207.411 227.192 207.427 225.221 207.401 223.269C211.941 219.772 216.448 216.996 216.963 211.108Z"/><path fill="#798C61" d="M220.907 258.164C222.171 258.832 223.796 259.202 224.636 260.22C228.345 264.712 232.697 266.783 238.736 266.199C240.175 266.059 243.24 269.468 243.3 271.317C243.399 274.362 242.282 277.888 240.553 280.454C237.329 285.24 233.997 289.85 227.291 291.116C221.655 292.181 218.838 289.516 216.223 285.81C213.957 282.6 211.703 279.241 210.276 275.62C208.935 272.219 208.682 268.389 208.203 264.137C208.493 263.153 208.701 262.965 209.078 262.964C209.078 262.964 208.985 263.081 209.279 262.982C212.767 261.747 215.975 260.645 219.147 259.448C219.802 259.201 220.324 258.601 220.907 258.164Z"/><path fill="#798C61" d="M299.888 210.162C301.46 211.692 302.963 213.305 304.631 214.722C305.676 215.61 307.013 216.881 308.145 216.809C312.205 216.55 313.563 218.92 314.644 222.173C317.258 230.042 315.089 236.043 308.731 241.375C303.004 246.178 298.779 247.272 292.782 243.203C291.434 242.289 290.016 239.896 290.269 238.477C291.416 232.069 290.77 226.25 286.691 220.985C286.229 220.388 286.192 219.462 286.393 218.405C291.181 215.468 295.534 212.815 299.888 210.162Z"/><path fill="#DDE372" d="M457.829 81.5263C455.653 82.2648 453.241 82.9557 450.827 82.959C392.215 83.0395 333.602 83.0468 274.319 82.9138C273.413 82.4873 273.178 82.2141 272.943 81.9409C274.138 81.6262 275.334 81.037 276.529 81.0362C336.555 80.9964 396.582 81.0067 456.608 81.018C456.936 81.0181 457.265 81.1095 457.829 81.5263Z"/><path fill="#31BA80" d="M75.0857 73.1715C75.0599 126.719 75.0436 180.266 74.9781 233.814C74.975 236.275 74.5307 238.736 74.1171 241.574C73.6268 240.594 73.036 239.236 73.0353 237.877C73.006 183.219 73.0302 128.56 73.4412 73.4569C74.2518 73.0652 74.6688 73.1184 75.0857 73.1715Z"/><path fill="#5CC695" d="M75.5458 73.1315C74.6687 73.1194 74.2517 73.0663 73.5205 72.9936C74.3695 72.6466 75.5327 72.0334 76.6962 72.0329C137.104 72.0044 197.512 72.0279 258.368 72.1207C256.539 72.4741 254.262 72.9936 251.985 72.9961C193.325 73.0604 134.666 73.0708 75.5458 73.1315Z"/><path fill="#D1E36F" d="M198.992 315.965C172.104 315.97 145.216 316.003 118.328 315.922C116.318 315.916 114.311 315.098 112.174 314.287C139.422 313.942 166.8 313.965 194.177 314.004C195.996 314.006 197.815 314.136 199.665 314.717C199.461 315.473 199.227 315.719 198.992 315.965Z"/><path fill="#D1DF54" d="M65.0845 254.443C65.4343 255.591 65.9648 257.207 65.9662 258.823C66.0097 309.655 66.0051 360.486 65.9827 411.318C65.9821 412.634 65.6999 413.949 65.3545 415.626C65.1063 394.381 65.0211 372.773 65.0063 351.165C64.9842 319.081 65.0119 286.996 65.0845 254.443Z"/><path fill="#D1DF54" d="M411.984 186.477C412.646 186.837 413.91 187.662 413.915 188.494C414.016 207.653 413.995 226.812 413.922 245.971C413.919 246.856 413.222 247.738 412.513 248.801C412.119 228.302 412.06 207.623 411.984 186.477Z"/><path fill="#1C6641" d="M217.246 245.39C224.466 246.05 231.81 247.041 239.159 247.988C243.947 248.605 245.356 246.093 244.858 241.781C244.556 239.157 244.384 236.517 244.193 233.459C248.669 237.599 246.744 243.246 246.713 248.522C246.709 249.233 245.079 250.607 244.302 250.538C236.167 249.825 228.044 248.944 219.944 247.911C219.008 247.792 218.225 246.468 217.246 245.39Z"/><path fill="#DDE372" d="M248.775 388.528C247.445 389.266 245.879 389.966 244.308 389.976C231.025 390.064 217.741 390.063 204.458 389.963C203.26 389.954 202.068 389.055 200.99 388.289C216.916 388.062 232.726 388.116 248.775 388.528Z"/><path fill="#BBCF33" d="M198.994 316.437C199.227 315.719 199.461 315.473 199.907 315.084C200.402 315.446 200.684 315.952 200.903 316.779C200.562 319.214 200.05 321.326 200.043 323.44C199.981 342.417 200.007 361.394 200.007 380.372C200.007 381.978 200.007 383.583 200.007 385.189C199.67 385.188 199.333 385.186 198.996 385.185C198.996 362.426 198.996 339.668 198.994 316.437Z"/><path fill="#C4CBB3" d="M279.528 245.115C279.774 245.448 279.627 246.002 279.489 245.999C272.682 245.879 269.535 251.299 265.14 255.047C262.505 257.294 258.792 258.277 255.227 259.976C254.622 257.321 255.478 255.738 258.746 255.204C262.802 254.542 265.338 252.607 267.432 249.076C270.013 244.722 274.397 243.977 279.528 245.115Z"/><path fill="#C4CBB3" d="M264.071 197.697C256.993 198.133 249.916 198.57 242.212 199.124C241.343 199.156 241.1 199.069 240.857 198.982C242.298 197.751 243.697 195.528 245.189 195.464C251.172 195.206 257.184 195.618 263.587 196.357C264.016 197.188 264.044 197.442 264.071 197.697Z"/><path fill="#DDE372" d="M109.544 251.092C108.09 251.473 106.172 252.032 104.251 252.046C91.5212 252.142 78.791 252.122 65.6019 252.164C66.5344 251.792 67.9239 251.058 69.3179 251.05C82.5711 250.968 95.8251 251.011 109.544 251.092Z"/><path fill="#C4CBB3" d="M308.547 256.951C303.683 257.362 298.448 257.577 293.117 257.42C298.072 256.95 303.123 256.852 308.547 256.951Z"/><path fill="#C4CBB3" d="M216.594 211.07C216.449 216.996 211.941 219.773 207.484 222.882C207.506 221.721 207.531 220.24 208.275 219.381C210.787 216.479 213.555 213.798 216.594 211.07Z"/><path fill="#C4CBB3" d="M299.487 210.106C295.534 212.815 291.181 215.468 286.469 218.03C289.317 213.468 292.952 209.704 299.487 210.106Z"/><path fill="#C4CBB3" d="M220.504 258.114C220.324 258.6 219.802 259.2 219.147 259.447C215.975 260.644 212.767 261.746 209.219 262.935C209.982 257.252 213.782 255.587 220.504 258.114Z"/><path fill="#9BA683" d="M264.226 197.942C264.044 197.442 264.016 197.187 263.968 196.549C267.067 197.394 270.187 198.622 273.63 200.007C272.948 200.533 271.77 201.433 270.971 201.172C268.692 200.431 266.567 199.216 264.226 197.942Z"/><path fill="#1C6641" d="M227.944 216.643C224.498 215.06 225.089 211.965 225.759 208.514C226.548 210.846 227.261 213.535 227.944 216.643Z"/><path fill="#9BA683" d="M240.517 199.179C241.1 199.067 241.343 199.154 241.943 199.4C241.487 202.307 240.674 205.055 239.501 207.879C239.487 205.095 239.832 202.236 240.517 199.179Z"/><path fill="#C4CBB3" d="M208.846 263.027C208.701 262.965 208.493 263.153 208.31 263.699C208.12 263.499 208.27 263.239 208.846 263.027Z"/><path fill="#1C6641" d="M228.744 217.897C228.46 218.023 228.226 217.818 227.997 217.308C228.198 217.268 228.462 217.457 228.744 217.897Z"/></g><defs><clipPath id="clip0_2180_28805"><rect width="512" height="512" fill="#fff"/></clipPath></defs></svg>